<svg xmlns="http://www.w3.org/2000/svg" viewBox="0 0 24 24">
  <path d="M24 14.62l-3.52.99 3.12 1.76-.98 1.74-3.13-1.76.99 3.52-1.93.54-1.52-5.45L13 13.71v3.88l4 4L15.59 23 13 20.41V24h-2v-3.59L8.41 23 7 21.59l4-4V13.7l-4.03 2.25-1.52 5.45-1.93-.54.98-3.52-3.12 1.76-.98-1.74 3.12-1.76L0 14.62l.54-1.92 5.45 1.52L9.95 12 6 9.78.54 11.3 0 9.38l3.52-.99L.4 6.63l.98-1.74L4.5 6.65l-.98-3.52 1.93-.54 1.52 5.45L11 10.29V6.41l-4-4L8.41 1 11 3.59V0h2v3.59L15.59 1 17 2.41l-4 4v3.88l4.03-2.25 1.52-5.45 1.93.54-.99 3.52 3.13-1.76.98 1.74-3.12 1.76 3.52.99-.54 1.92-5.45-1.52L14.05 12 18 14.22l5.45-1.52z"/>
</svg>
