<svg xmlns="http://www.w3.org/2000/svg" width="256" height="256" viewBox="0 0 1 1">
  <path fill="#4B1D37" d="M0 0h1v1H0z"/>
  <circle cx=".5" cy=".5" r=".32" stroke-width=".08" stroke="#fff" fill="transparent"/>
  <path fill="#fff" d="M.5.18L.4606.1928.4448.2056.4331.2184.4236.2312.4156.244.4084.2568.4024.2696.3968.2824.3919.2952.3874.308l-.004.0128-.0036.0128-.0033.0128-.0029.0128L.371.372.3686.3848l-.002.0128-.0018.0128-.0015.0128L.362.436.361.4488.3601.4616.3597.4744.3592.4872v.0256l.0005.0128.0005.0128.0008.0128.001.0128.0013.0128.0016.0128.0017.0128.002.0128L.371.628l.0026.0128.0029.0128.0032.0128.0037.0128.004.0128.0044.0128.005.0128.0055.0128.0062.0128.007.0128.0081.0128.0095.0128.0117.0128.0158.0128L.5.82.4104.8072.3746.7944.348.7816.3264.7688.308.756.292.7432.278.7304.2653.7176.2542.7048.244.692.2349.6792.2266.6664.2193.6536.2126.6408.2067.628.2014.6152.1968.6024.1928.5896.1894.5768.1864.564.184.5512.1824.5384.181.5256.1802.5128.18.5.1802.4872.181.4744.1823.4616.1842.4488.1864.436l.003-.0128.0034-.0128.004-.0128.0046-.0128L.2067.372l.006-.0128.0066-.0128.0073-.0128L.235.3208.244.308.2542.2952.2654.2824.2779.2696.292.2568.308.244.3264.2312.348.2184.3746.2056.4104.1928.5.18"/>
</svg>
